<?xml version="1.0" standalone="no"?>
<!DOCTYPE svg PUBLIC "-//W3C//DTD SVG 20010904//EN"
 "http://www.w3.org/TR/2001/REC-SVG-20010904/DTD/svg10.dtd">
<svg version="1.0" xmlns="http://www.w3.org/2000/svg"
 width="669.000000pt" height="669.000000pt" viewBox="0 0 669.000000 669.000000"
 preserveAspectRatio="xMidYMid meet">
<metadata>
Created by potrace 1.11, written by Peter Selinger 2001-2013
</metadata>
<g transform="translate(0.000000,669.000000) scale(0.100000,-0.100000)"
fill="#000000" stroke="none">
<path d="M0 3350 l0 -3110 3345 0 3345 0 0 3110 0 3110 -3345 0 -3345 0 0
-3110z m6160 2507 c66 -23 81 -40 87 -101 5 -47 3 -56 -10 -56 -16 0 -66 -19
-120 -46 -16 -8 -36 -14 -46 -14 -9 0 -26 -7 -37 -15 -10 -8 -27 -15 -37 -15
-11 0 -33 -7 -50 -16 -57 -30 -67 -34 -77 -34 -6 0 -32 -9 -58 -21 -26 -11
-58 -25 -72 -30 -14 -6 -38 -17 -53 -25 -16 -8 -35 -14 -43 -14 -8 0 -22 -4
-32 -10 -9 -5 -39 -19 -67 -31 -44 -19 -92 -40 -190 -83 -16 -8 -57 -26 -90
-41 -67 -30 -113 -50 -135 -59 -8 -3 -22 -10 -30 -15 -8 -5 -55 -28 -105 -51
-49 -23 -106 -50 -125 -59 -19 -9 -36 -19 -38 -23 -2 -5 -9 -8 -16 -8 -7 0
-35 -12 -62 -26 -27 -15 -67 -36 -89 -47 -22 -12 -42 -23 -45 -26 -3 -4 -23
-15 -45 -25 -22 -11 -54 -30 -72 -43 -17 -13 -34 -23 -37 -23 -10 0 -111 -64
-114 -72 -2 -4 -8 -8 -14 -8 -5 0 -15 -6 -23 -12 -7 -7 -28 -24 -47 -38 -105
-79 -171 -175 -161 -235 5 -32 54 -75 86 -75 8 0 18 -4 21 -9 3 -4 25 -12 48
-16 62 -12 68 -13 123 -26 28 -6 59 -13 70 -14 11 -1 27 -5 35 -8 8 -2 33 -9
55 -15 22 -6 65 -17 95 -25 30 -9 71 -18 90 -22 19 -3 44 -10 55 -15 11 -4 47
-16 80 -25 33 -9 69 -20 80 -25 11 -5 45 -16 75 -25 30 -9 69 -23 85 -30 17
-7 59 -24 95 -38 68 -26 201 -87 210 -97 3 -3 32 -18 65 -35 172 -84 389 -261
460 -376 16 -24 31 -46 34 -49 7 -6 21 -36 51 -110 15 -37 24 -87 29 -155 6
-97 3 -125 -29 -254 -16 -64 -88 -206 -150 -291 -51 -72 -242 -271 -305 -318
-120 -90 -164 -122 -168 -122 -3 0 -32 -18 -65 -40 -33 -22 -65 -40 -71 -40
-6 0 -11 -4 -11 -8 0 -5 -33 -25 -72 -46 -40 -20 -80 -40 -88 -45 -8 -4 -33
-16 -55 -26 -22 -9 -49 -22 -59 -27 -11 -6 -31 -14 -45 -18 -14 -5 -51 -18
-81 -30 -30 -12 -71 -26 -90 -31 -19 -6 -44 -14 -55 -19 -35 -16 -187 -52
-300 -71 -122 -22 -368 -27 -445 -10 -183 40 -234 57 -365 122 -88 43 -111 60
-138 101 -23 36 -22 56 6 78 21 18 54 18 67 0 6 -8 128 -80 137 -80 3 0 19 -6
36 -14 91 -41 128 -47 217 -35 182 23 497 70 535 80 22 6 74 19 115 28 42 10
85 23 95 28 11 6 38 14 60 18 22 4 45 10 50 15 6 4 22 10 37 14 15 3 55 19 90
34 35 16 83 37 108 47 25 11 61 28 80 40 19 11 53 29 75 40 54 27 245 156 308
208 88 72 261 249 315 322 56 76 122 196 122 224 0 9 5 22 11 28 17 17 24 196
9 235 -23 62 -62 138 -71 138 -5 0 -9 5 -9 11 0 7 -10 20 -22 31 -13 11 -39
34 -58 52 -19 17 -62 50 -95 71 -33 22 -62 42 -65 45 -4 4 -30 18 -119 64 -99
51 -133 66 -146 66 -8 0 -15 5 -15 10 0 6 -6 10 -14 10 -8 0 -43 12 -78 26
-35 14 -72 30 -83 34 -11 5 -42 16 -70 25 -27 10 -59 21 -70 25 -11 4 -54 17
-95 30 -41 12 -97 30 -125 40 -27 10 -66 22 -85 26 -19 3 -41 10 -50 14 -25
13 -62 26 -120 44 -30 10 -64 21 -75 26 -11 4 -94 36 -184 70 -170 65 -278
121 -331 170 -41 38 -41 90 0 161 17 28 36 57 43 64 7 7 32 37 57 66 25 29 54
60 64 68 10 9 37 33 60 55 23 21 77 66 121 99 44 34 82 65 83 69 2 4 8 8 13 8
5 0 50 29 99 65 49 36 93 65 98 65 4 0 19 10 33 23 14 12 49 35 79 51 30 16
62 35 71 42 8 8 19 14 23 14 3 0 29 15 57 34 27 19 60 38 72 42 12 4 24 9 27
13 3 3 28 18 55 32 28 14 77 39 110 56 127 65 292 143 302 143 6 0 24 6 40 14
15 8 46 22 68 31 22 9 48 20 57 25 10 6 26 10 36 10 10 0 27 7 38 15 10 8 28
15 39 15 11 0 33 7 49 15 15 8 37 15 47 15 10 0 39 7 64 16 43 14 155 30 235
33 19 0 51 -5 70 -12z m-2998 -463 c27 -47 57 -173 78 -334 29 -224 60 -536
71 -724 5 -94 14 -243 19 -331 5 -88 14 -243 20 -345 6 -102 15 -205 20 -230
6 -25 19 -101 30 -170 11 -69 23 -132 26 -140 4 -8 12 -49 19 -90 17 -93 39
-170 65 -225 11 -23 20 -47 20 -53 0 -7 5 -12 10 -12 6 0 10 -5 10 -11 0 -42
162 -226 273 -309 51 -38 57 -45 43 -56 -9 -6 -40 -14 -70 -18 -72 -8 -128 16
-198 86 -80 79 -126 160 -183 323 -15 44 -32 84 -36 89 -5 6 -9 17 -9 25 0 9
-7 29 -15 45 -8 15 -15 32 -15 37 0 5 -11 32 -25 61 -14 28 -25 57 -25 65 0
11 -14 38 -64 127 -61 108 -142 121 -331 51 -126 -46 -176 -65 -195 -75 -9 -4
-30 -11 -48 -14 -17 -4 -34 -12 -37 -17 -4 -5 -15 -9 -25 -9 -11 0 -36 -7 -57
-16 -51 -22 -66 -28 -153 -59 -93 -33 -180 -75 -180 -86 0 -5 -5 -9 -11 -9
-23 0 -158 -145 -246 -265 -38 -52 -207 -306 -263 -395 -29 -47 -57 -86 -62
-88 -4 -2 -8 -9 -8 -15 -1 -12 -122 -202 -209 -328 -106 -154 -231 -311 -320
-402 -96 -99 -215 -197 -238 -197 -7 0 -13 -4 -13 -9 0 -5 -8 -11 -17 -14 -10
-3 -52 -17 -93 -31 -41 -15 -92 -26 -115 -26 -53 0 -163 24 -200 44 -16 9 -34
16 -38 16 -9 0 -67 65 -84 94 -32 55 -3 67 64 26 86 -53 176 -47 323 23 36 17
70 35 75 39 6 4 39 29 75 55 132 96 325 282 433 420 12 14 32 38 45 52 65 69
252 332 367 516 48 77 105 202 105 231 0 29 -6 36 -67 71 -38 22 -92 53 -121
68 -34 18 -52 34 -50 44 4 18 118 78 198 105 135 44 239 88 259 110 12 13 39
56 60 97 21 41 60 115 86 164 61 116 254 502 312 625 148 314 243 524 243 538
0 7 5 12 10 12 6 0 10 5 10 11 0 6 6 25 14 42 8 18 27 59 41 92 15 33 47 105
72 160 25 55 62 136 83 180 20 44 48 103 60 130 56 123 113 241 122 253 17 20
40 10 60 -24z m710 -1585 c68 -37 84 -79 47 -130 -43 -61 -140 -23 -143 56 -1
33 4 42 33 62 39 27 36 26 63 12z"/>
<path d="M3084 4908 c-35 -39 -51 -71 -119 -234 -37 -87 -73 -174 -81 -191 -8
-18 -25 -61 -39 -95 -25 -69 -78 -195 -100 -243 -38 -81 -75 -166 -75 -169 0
-19 -220 -470 -231 -474 -5 -2 -9 -8 -9 -14 0 -6 -21 -47 -46 -91 -55 -99 -64
-131 -37 -145 20 -11 80 -3 168 22 28 8 77 22 110 31 33 9 71 20 85 25 14 5
59 18 100 30 41 12 84 25 95 29 120 48 200 89 225 116 l25 26 0 672 c-1 370
-4 684 -8 700 -9 33 -36 36 -63 5z"/>
</g>
</svg>
